# xmcd CD database file
#
# Track frame offsets:
#	150
#	15966
#	33216
#	47378
#	64943
#	83853
#	103681
#	118639
#	133372
#	152938
#	173362
#	186791
#	205939
#	229721
#	254257
#	271004
#	286130
#
# Disc length: 3962 seconds
#
# Revision: 0
# Processed by: cddbd v1.5.2PL0 Copyright (c) Steve Scherf et al.
# Submitted via: CDex 1.70beta2
#
DISCID=db0f7811
DTITLE=Ennrio Morricone - Ennrio Morricone Gold Edition Disc III
DYEAR=2007
DGENRE=New Age
TTITLE0=Chi Mai
TTITLE1=Addio A Palermo
TTITLE2=L'uomo Delle Stelle
TTITLE3=Si Muore D'Amore
TTITLE4=Romanzo
TTITLE5=Dimenticare Palermo
TTITLE6=A Lydia
TTITLE7=Faccia A Faccia
TTITLE8=Giu La Testa
TTITLE9=Metti Una Sera A Cena
TTITLE10=Veruschka
TTITLE11=La Cugina
TTITLE12=Piume Di Cristallo
TTITLE13=Alla Serenita
TTITLE14=Come Un Madrigale
TTITLE15=Castelli Di Scozia
TTITLE16=Gavriel's Oboe
EXTD=YEAR: 2007
EXTT0=
EXTT1=
EXTT2=
EXTT3=
EXTT4=
EXTT5=
EXTT6=
EXTT7=
EXTT8=
EXTT9=
EXTT10=
EXTT11=
EXTT12=
EXTT13=
EXTT14=
EXTT15=
EXTT16=
PLAYORDER=
